<?xml version="1.0" encoding="utf-8"?>
<!-- Generator: Adobe Illustrator 23.0.3, SVG Export Plug-In . SVG Version: 6.00 Build 0)  -->
<svg version="1.1" id="Layer_1" xmlns="http://www.w3.org/2000/svg" xmlns:xlink="http://www.w3.org/1999/xlink" x="0px" y="0px"
	 viewBox="0 0 595.3 841.9" enable-background="new 0 0 595.3 841.9" xml:space="preserve">
<g>
	<path d="M174.2,122.2c0,0,32.6-4.3,50.9-4.3c28.3,0,46.6,5.2,59.4,16.8c10.4,9.1,16.2,23.2,16.2,39c0,27.1-17.1,45.1-38.7,52.4v0.9
		c15.8,5.5,25.3,20.1,30.2,41.4c6.7,28.6,11.6,48.4,15.9,56.4h-27.4c-3.3-5.8-7.9-23.5-13.7-49.1c-6.1-28.3-17.1-39-41.1-39.9h-25
		v89h-26.5c-11.4,0.1-22.8,0.1-34.3,0.2c11.4-2.5,22.8-5,34.3-7.5V122.2z M200.7,215.8h27.1c28.3,0,46.3-15.5,46.3-39
		c0-26.5-19.2-38.1-47.2-38.4c-12.8,0-21.9,1.2-26.2,2.4V215.8z"/>
</g>
<g>
	<path d="M281.3,324.8L357.4,120c22.2-0.2,44.3-0.3,66.5-0.5c-15.4,3.4-30.8,6.9-46.1,10.3c-23.2,65-46.5,130-69.7,195
		C308,324.8,290.2,324.8,281.3,324.8z"/>
</g>
</svg>
